#FILENAME=9109fe0a
# xmcd CD database file
# Copyright (C) 1995-1998 Ti Kan
#
# Track frame offsets:
#	150
#	20037
#	37070
#	57575
#	74602
#	97862
#	118840
#	139470
#	152452
#	171797
#
# Disc length: 2559 seconds
#
# Revision: 34558876
# Submitted via:  DiscPlay 3.4
#
DISCID=9109fe0a
DTITLE=Various Artists / Alive in the 90's
TTITLE0=Wilson Phillips / Hold On
TTITLE1=Divinyls / I Touch Myself
TTITLE2=D.J. Jazzy Jeff & The Fresh Prince / Summertime
TTITLE3=The Hieghts / How Do You Talk to an Angel
TTITLE4=Shaquille O'Neal / Biological Didn't Bother
TTITLE5=Charles & Eddie / Would I Lie to You?
TTITLE6=Arrested Development / Tennessee
TTITLE7=Right Said Fred / I'm Too Sexy
TTITLE8=MC Hammer / U Can't Touch This
TTITLE9=Vanilla Ice / Ice, Ice Baby
EXTD=\nYEAR: 1999  ID3G:  17
EXTT0=Wilson Phillips
EXTT1=Divinyls
EXTT2=D.J. Jazzy Jeff & The Fresh Prince
EXTT3=The Hieghts
EXTT4=Shaquille O'Neal
EXTT5=Charles & Eddie
EXTT6=Arrested Development
EXTT7=Right Said Fred
EXTT8=MC Hammer
EXTT9=Vanilla Ice
PLAYORDER=
